<svg xmlns="http://www.w3.org/2000/svg" version="1.1" xmlns:xlink="http://www.w3.org/1999/xlink" viewBox="0 0 13.556593828035373 3.2637635348894944"><g transform="matrix(1,0,0,1,0.5259227830697473,0.777875908069747)"><rect width="13.556593828035373" height="13.556593828035373" x="-0.5259227830697473" y="-5.924291054642686" fill="#ffffff"></rect><g clip-path="url(#SvgjsClipPath1002)"><g clip-path="url(#SvgjsClipPath1000b73275ef-b7a6-405e-b8d1-3f6fdd383588)"><path d=" M 6.138371978048587 0.23827704599428884 L 5.640084017334405 0.7508100278204282 L 5.458495970432499 0.5739703212891747 L 5.9910295374562335 0.04014175234617151 C 5.887573273016875 -0.06374617939960966 5.761382530439243 -0.11626570168106412 5.615766759072581 -0.11626570168106412 C 5.541376093265698 -0.11626570168106412 5.469143763990931 -0.10173290236482604 5.4010842186782515 -0.07295508193663178 C 5.335326898999828 -0.04518448522342433 5.27633236712203 -0.005327203930375307 5.225683403168407 0.045321760023246505 C 5.175034439214786 0.09597072397686834 5.135177157921737 0.15496525585466653 5.107406561208529 0.22072257553309038 C 5.078628740780335 0.28863823174362885 5.064095941464097 0.3610144501205373 5.064095941464097 0.43540511592741943 C 5.064095941464097 0.5097957817343015 5.078628740780335 0.582028111009069 5.107406561208529 0.6500876563217486 C 5.135177157921737 0.7158449760001724 5.175034439214786 0.7748395078779706 5.225683403168407 0.8254884718315925 C 5.276332367122029 0.8761374357852143 5.335326898999828 0.915994717078263 5.4010842186782515 0.943765313791471 C 5.46899987488879 0.9725431342196651 5.541232204163557 0.9870759335359032 5.615766759072581 0.9870759335359032 C 5.690301313981603 0.9870759335359032 5.762533643256371 0.9723992451175238 5.8305931885690505 0.9436214246893297 C 5.896350508247474 0.9158508279761222 5.955345040125272 0.8759935466830735 6.005994004078894 0.8253445827294514 C 6.056642968032516 0.7746956187758294 6.096500249325565 0.7157010868980311 6.1242708460387725 0.6499437672196076 C 6.153048666466967 0.582028111009069 6.167581465783205 0.5097957817343015 6.167581465783205 0.4352612268252785 C 6.167581465783205 0.35453944052419356 6.158516452348324 0.2926671266035759 6.138371978048587 0.23827704599428884 Z M 5.476769886404402 0.27180320679313513 C 5.526555515745178 0.222017577452359 5.607277302046263 0.222017577452359 5.657062931387039 0.27180320679313513 L 5.476769886404402 0.4520962517757719 C 5.426984257063626 0.4023106224349961 5.426984257063626 0.32158883613391115 5.476769886404402 0.27180320679313513 Z" fill="#000000" transform="matrix(1,0,0,1,0,0)" fill-rule="nonzero" stroke-miterlimit="10" stroke-width="0.028777820428194236" stroke="#bf0000"></path></g><g clip-path="url(#SvgjsClipPath1000b73275ef-b7a6-405e-b8d1-3f6fdd383588)"><path d=" M 6.023260696335811 -0.17396523163959363 L 6.020526803395132 -0.17123133869891516 C 6.0055623367724715 -0.15626687207625417 6.005706225874612 -0.13209350291657104 6.0208145815994145 -0.117272925396051 L 6.1494514389134425 0.008342260773016863 L 5.571017248306738 0.5877836750947076 C 5.556052781684078 0.6028920308195096 5.531591634320113 0.6027481417173686 5.517202724106015 0.5885031206054125 C 5.502094368381213 0.5735386539827516 5.502669924789777 0.5474947264952357 5.519504949740271 0.5328180380768566 C 5.640227906436546 0.41195119227844085 5.760806974030679 0.29094045737788404 5.881529930726954 0.17007361157946826 C 5.816348167457094 0.10374073549248047 5.724690809393295 0.06273234138230371 5.624400105201039 0.06273234138230371 C 5.425977033348639 0.06273234138230394 5.265109017155034 0.2236003575759098 5.265109017155034 0.422023429428309 C 5.265109017155034 0.6200148339742853 5.426408700655062 0.7813145174743139 5.624400105201039 0.7813145174743139 C 5.822823177053438 0.7813145174743139 5.983691193247044 0.6204465012807083 5.983691193247044 0.4220234294283088 C 5.983691193247044 0.40921729933776246 5.983978971451325 0.3956917237365111 5.982683969532057 0.38317337185024664 L 5.675912403767506 0.6902327158190793 C 5.662386828166255 0.7037582914203306 5.640659573742968 0.7043338478288943 5.627421776345999 0.6925349414533348 C 5.612888977029761 0.6795849222606474 5.612025642416915 0.6551237748966823 5.627421776345999 0.6404470864783032 C 5.819945395010619 0.4477795787115428 6.0116056790623915 0.25669485106833306 6.204129297727011 0.06402734330157261 L 6.326003367240414 0.1884914166535127 C 6.342262835782344 0.20475088519544243 6.368450652372001 0.20503866339972432 6.384997899118212 0.18935475126635853 C 6.385573455526776 0.1887791948577946 6.3861490119353395 0.18834752755137169 6.3867245683439045 0.18777197114280775 C 6.393055688838107 0.1825919634657328 6.397084583698054 0.1751097301544023 6.398235696515182 0.16705194043450805 L 6.454064668145879 -0.2519531250000001 C 6.454064668145878 -0.251953125 6.039807943082023 -0.19051247838580532 6.023260696335811 -0.17396523163959363 Z M 5.476769886404402 0.27180320679313513 C 5.526555515745178 0.222017577452359 5.607277302046263 0.222017577452359 5.657062931387039 0.27180320679313513 L 5.476769886404402 0.4520962517757719 C 5.426984257063626 0.4023106224349961 5.426984257063626 0.32158883613391115 5.476769886404402 0.27180320679313513 Z" fill="#bf0000" transform="matrix(1,0,0,1,0,0)" fill-rule="nonzero"></path></g></g><g><path d=" M 0.0927734375 0.011718750000000111 L 0.26953125 0.011718750000000111 L 0.72998046875 0.3984375000000001 L 0.73046875 0.011718750000000111 L 0.837890625 0.011718750000000111 L 0.837890625 0.7373046875000001 L 0.6611328125 0.7373046875000001 L 0.2001953125 0.3520507812500001 L 0.2001953125 0.7373046875000001 L 0.0927734375 0.7373046875000001 L 0.0927734375 0.011718750000000111 M 1.0234375 0.011718750000000111 L 1.63671875 0.011718750000000111 L 1.63671875 0.12353515625000011 L 1.30615234375 0.12353515625000011 L 1.3056640625 0.3193359375000001 L 1.55859375 0.3193359375000001 L 1.55859375 0.4311523437500001 L 1.3056640625 0.4311523437500001 L 1.3056640625 0.6254882812500001 L 1.63671875 0.6254882812500001 L 1.63671875 0.7373046875000001 L 1.0234375 0.7373046875000001 L 1.0234375 0.011718750000000111 M 1.9091796875 0.12304687500000011 L 1.7021484375 0.12304687500000011 L 1.7021484375 0.011230468750000111 L 2.3984375 0.011230468750000111 L 2.3984375 0.12304687500000011 L 2.19140625 0.12304687500000011 L 2.19140625 0.7373046875000001 L 1.9091796875 0.7373046875000001 L 1.9091796875 0.12304687500000011 M 2.50439453125 0.011718750000000111 L 3.11767578125 0.011718750000000111 L 3.11767578125 0.12353515625000011 L 2.787109375 0.12353515625000011 L 2.78662109375 0.3193359375000001 L 3.03955078125 0.3193359375000001 L 3.03955078125 0.4311523437500001 L 2.78662109375 0.4311523437500001 L 2.78662109375 0.6254882812500001 L 3.11767578125 0.6254882812500001 L 3.11767578125 0.7373046875000001 L 2.50439453125 0.7373046875000001 L 2.50439453125 0.011718750000000111 M 3.2626953125 0.011718750000000111 L 3.68115234375 0.011718750000000111 Q 3.76220703125 0.011718750000000111 3.822998046875 0.02880859375000011 Q 3.8837890625 0.04589843750000011 3.924560546875 0.07666015625000011 Q 3.96533203125 0.10742187500000011 3.98583984375 0.1503906250000001 Q 4.00634765625 0.1933593750000001 4.00634765625 0.2451171875000001 Q 4.00634765625 0.3090820312500001 3.97607421875 0.3586425781250001 Q 3.94580078125 0.4082031250000001 3.88623046875 0.4375000000000001 L 4.03857421875 0.7377929687500001 L 3.7197265625 0.7377929687500001 L 3.6044921875 0.4741210937500001 L 3.544921875 0.4741210937500001 L 3.544921875 0.7373046875000001 L 3.2626953125 0.7373046875000001 L 3.2626953125 0.011718750000000111 M 3.56201171875 0.3857421875000001 Q 3.5966796875 0.3857421875000001 3.6240234375 0.3759765625000001 Q 3.6513671875 0.3662109375000001 3.67041015625 0.3483886718750001 Q 3.689453125 0.3305664062500001 3.69970703125 0.3059082031250001 Q 3.7099609375 0.2812500000000001 3.7099609375 0.2519531250000001 Q 3.7099609375 0.2226562500000001 3.69970703125 0.1979980468750001 Q 3.689453125 0.1733398437500001 3.67041015625 0.1555175781250001 Q 3.6513671875 0.1376953125000001 3.6240234375 0.1279296875000001 Q 3.5966796875 0.11816406250000011 3.56201171875 0.11816406250000011 L 3.54541015625 0.11816406250000011 L 3.544921875 0.3857421875000001 L 3.56201171875 0.3857421875000001 M 4.3740234375 0.1948242187500001 L 4.2900390625 0.011718750000000111 L 4.58740234375 0.011718750000000111 L 4.94287109375 0.7377929687500001 L 4.6240234375 0.7377929687500001 L 4.5703125 0.6215820312500001 L 4.2841796875 0.6215820312500001 L 4.23095703125 0.7377929687500001 L 4.107421875 0.7377929687500001 L 4.3740234375 0.1948242187500001 M 4.51904296875 0.5097656250000001 L 4.42724609375 0.3105468750000001 L 4.3359375 0.5097656250000001 L 4.51904296875 0.5097656250000001" fill="#0e1425" fill-rule="nonzero"></path></g><g><path d=" M 6.6468381056458785 0.011718750000000111 L 6.9451779493958785 0.011718750000000111 Q 7.0711545118958785 0.011718750000000111 7.1634396681458785 0.03540039062500011 Q 7.2557248243958785 0.05908203125000011 7.3162716993958785 0.10498046875000011 Q 7.3768185743958785 0.1508789062500001 7.4061154493958785 0.2177734375000001 Q 7.4354123243958785 0.2846679687500001 7.4354123243958785 0.3710937500000001 Q 7.4354123243958785 0.4482421875000001 7.4061154493958785 0.5148925781250001 Q 7.3768185743958785 0.5815429687500001 7.3162716993958785 0.6311035156250001 Q 7.2557248243958785 0.6806640625000001 7.1634396681458785 0.7089843750000001 Q 7.0711545118958785 0.7373046875000001 6.9451779493958785 0.7373046875000001 L 6.6468381056458785 0.7373046875000001 L 6.6468381056458785 0.011718750000000111 M 6.9290646681458785 0.6308593750000001 Q 6.9778927931458785 0.6308593750000001 7.0169552931458785 0.6157226562500001 Q 7.0560177931458785 0.6005859375000001 7.0831174025208785 0.5688476562500001 Q 7.1102170118958785 0.5371093750000001 7.1246213087708785 0.4880371093750001 Q 7.1390256056458785 0.4389648437500001 7.1390256056458785 0.3706054687500001 Q 7.1390256056458785 0.3027343750000001 7.1243771681458785 0.2548828125000001 Q 7.1097287306458785 0.2070312500000001 7.0823849806458785 0.1765136718750001 Q 7.0550412306458785 0.1459960937500001 7.0162228712708785 0.1320800781250001 Q 6.9774045118958785 0.11816406250000011 6.9295529493958785 0.11816406250000011 L 6.9290646681458785 0.6308593750000001 M 7.5784787306458785 0.011718750000000111 L 7.8611935743958785 0.011718750000000111 L 7.8607052931458785 0.7373046875000001 L 7.5784787306458785 0.7373046875000001 L 7.5784787306458785 0.011718750000000111 M 8.004259980645879 0.3750000000000001 Q 8.004259980645879 0.3232421875000001 8.017687715020879 0.2751464843750001 Q 8.031115449395879 0.2270507812500001 8.056994355645879 0.1855468750000001 Q 8.082873261895879 0.1440429687500001 8.120470918145879 0.10986328125000011 Q 8.158068574395879 0.07568359375000011 8.206164277520879 0.05126953125000011 Q 8.254259980645879 0.02685546875000011 8.312365449395879 0.013427734375000111 Q 8.370470918145879 1.1102230246251565e-16 8.437365449395879 1.1102230246251565e-16 Q 8.480334199395879 1.1102230246251565e-16 8.519640840020879 0.005371093750000111 Q 8.558947480645879 0.010742187500000111 8.593615449395879 0.02026367187500011 Q 8.628283418145879 0.02978515625000011 8.657824433770879 0.04223632812500011 Q 8.687365449395879 0.05468750000000011 8.711291230645879 0.06835937500000011 L 8.669299043145879 0.1503906250000001 Q 8.641955293145879 0.1372070312500001 8.607043183770879 0.1281738281250001 Q 8.572131074395879 0.11914062500000011 8.534533418145879 0.11914062500000011 Q 8.484240449395879 0.11914062500000011 8.441271699395879 0.1372070312500001 Q 8.398302949395879 0.1552734375000001 8.367052949395879 0.1884765625000001 Q 8.335802949395879 0.2216796875000001 8.317980683770879 0.2687988281250001 Q 8.300158418145879 0.3159179687500001 8.300158418145879 0.3745117187500001 Q 8.300158418145879 0.4326171875000001 8.317736543145879 0.4797363281250001 Q 8.335314668145879 0.5268554687500001 8.366320527520879 0.5603027343750001 Q 8.397326386895879 0.5937500000000001 8.440050996270879 0.6120605468750001 Q 8.482775605645879 0.6303710937500001 8.532580293145879 0.6303710937500001 L 8.532580293145879 0.3847656250000001 L 8.817248261895879 0.3847656250000001 L 8.766467011895879 0.4770507812500001 L 8.766467011895879 0.6743164062500001 L 8.766955293145879 0.6752929687500001 Q 8.743029511895879 0.6894531250000001 8.707873261895879 0.7026367187500001 Q 8.672717011895879 0.7158203125000001 8.629504121270879 0.7263183593750001 Q 8.586291230645879 0.7368164062500001 8.537463105645879 0.7431640625000001 Q 8.488634980645879 0.7495117187500001 8.437365449395879 0.7495117187500001 Q 8.337267793145879 0.7495117187500001 8.256945527520879 0.7199707031250001 Q 8.176623261895879 0.6904296875000001 8.120470918145879 0.6394042968750001 Q 8.064318574395879 0.5883789062500001 8.034289277520879 0.5202636718750001 Q 8.004259980645879 0.4521484375000001 8.004259980645879 0.3750000000000001 M 8.926134980645879 0.011718750000000111 L 9.208849824395879 0.011718750000000111 L 9.208361543145879 0.7373046875000001 L 8.926134980645879 0.7373046875000001 L 8.926134980645879 0.011718750000000111 M 9.394396699395879 0.011718750000000111 L 9.571154511895879 0.011718750000000111 L 10.031603730645879 0.3984375000000001 L 10.032092011895879 0.011718750000000111 L 10.139513886895879 0.011718750000000111 L 10.139513886895879 0.7373046875000001 L 9.962756074395879 0.7373046875000001 L 9.501818574395879 0.3520507812500001 L 9.501818574395879 0.7373046875000001 L 9.394396699395879 0.7373046875000001 L 9.394396699395879 0.011718750000000111 M 10.325060761895879 0.011718750000000111 L 10.938342011895879 0.011718750000000111 L 10.938342011895879 0.12353515625000011 L 10.607775605645879 0.12353515625000011 L 10.607287324395879 0.3193359375000001 L 10.860217011895879 0.3193359375000001 L 10.860217011895879 0.4311523437500001 L 10.607287324395879 0.4311523437500001 L 10.607287324395879 0.6254882812500001 L 10.938342011895879 0.6254882812500001 L 10.938342011895879 0.7373046875000001 L 10.325060761895879 0.7373046875000001 L 10.325060761895879 0.011718750000000111 M 11.093127168145879 0.5761718750000001 Q 11.144884980645879 0.6025390625000001 11.201525605645879 0.6157226562500001 Q 11.258166230645879 0.6289062500000001 11.306994355645879 0.6289062500000001 Q 11.363146699395879 0.6289062500000001 11.389269746270879 0.6127929687500001 Q 11.415392793145879 0.5966796875000001 11.415392793145879 0.5688476562500001 Q 11.415392793145879 0.5600585937500001 11.412218965020879 0.5507812500000001 Q 11.409045136895879 0.5415039062500001 11.400011933770879 0.5324707031250001 Q 11.390978730645879 0.5234375000000001 11.375109590020879 0.5144042968750001 Q 11.359240449395879 0.5053710937500001 11.333849824395879 0.4965820312500001 L 11.246447480645879 0.4667968750000001 Q 11.152697480645879 0.4345703125000001 11.105334199395879 0.3796386718750001 Q 11.057970918145879 0.3247070312500001 11.057970918145879 0.2490234375000001 Q 11.057970918145879 0.2001953125000001 11.078478730645879 0.1550292968750001 Q 11.098986543145879 0.10986328125000011 11.140490449395879 0.07543945312500011 Q 11.181994355645879 0.04101562500000011 11.245226777520879 0.02050781250000011 Q 11.308459199395879 1.1102230246251565e-16 11.393420136895879 1.1102230246251565e-16 Q 11.435412324395879 1.1102230246251565e-16 11.473986543145879 0.004882812500000111 Q 11.512560761895879 0.009765625000000111 11.546496308770879 0.01757812500000011 Q 11.580431855645879 0.02539062500000011 11.608752168145879 0.03540039062500011 Q 11.637072480645879 0.04541015625000011 11.658556855645879 0.05517578125000011 L 11.605822480645879 0.1503906250000001 Q 11.590197480645879 0.1406250000000001 11.572863496270879 0.1333007812500001 Q 11.555529511895879 0.1259765625000001 11.538195527520879 0.12109375000000011 Q 11.520861543145879 0.11621093750000011 11.504259980645879 0.11376953125000011 Q 11.487658418145879 0.11132812500000011 11.473986543145879 0.11132812500000011 Q 11.450549043145879 0.11132812500000011 11.432970918145879 0.11743164062500011 Q 11.415392793145879 0.12353515625000011 11.403429902520879 0.1335449218750001 Q 11.391467011895879 0.1435546875000001 11.385363496270879 0.1560058593750001 Q 11.379259980645879 0.1684570312500001 11.379259980645879 0.1806640625000001 Q 11.379259980645879 0.1914062500000001 11.384386933770879 0.2014160156250001 Q 11.389513886895879 0.2114257812500001 11.401965058770879 0.2209472656250001 Q 11.414416230645879 0.2304687500000001 11.434679902520879 0.2399902343750001 Q 11.454943574395879 0.2495117187500001 11.485217011895879 0.2597656250000001 L 11.543810761895879 0.2792968750000001 Q 11.639025605645879 0.3110351562500001 11.689318574395879 0.3666992187500001 Q 11.739611543145879 0.4223632812500001 11.739611543145879 0.5014648437500001 Q 11.739611543145879 0.5551757812500001 11.715441621270879 0.6005859375000001 Q 11.691271699395879 0.6459960937500001 11.643420136895879 0.6789550781250001 Q 11.595568574395879 0.7119140625000001 11.524523652520879 0.7302246093750001 Q 11.453478730645879 0.7485351562500001 11.359728730645879 0.7485351562500001 Q 11.314806855645879 0.7485351562500001 11.273058808770879 0.7438964843750001 Q 11.231310761895879 0.7392578125000001 11.191515840020879 0.7299804687500001 Q 11.151720918145879 0.7207031250000001 11.113146699395879 0.7065429687500001 Q 11.074572480645879 0.6923828125000001 11.035998261895879 0.6733398437500001 L 11.093127168145879 0.5761718750000001 M 12.002306855645879 0.12304687500000011 L 11.795275605645879 0.12304687500000011 L 11.795275605645879 0.011230468750000111 L 12.491564668145879 0.011230468750000111 L 12.491564668145879 0.12304687500000011 L 12.284533418145879 0.12304687500000011 L 12.284533418145879 0.7373046875000001 L 12.002306855645879 0.7373046875000001 L 12.002306855645879 0.12304687500000011" fill="#0e1425" fill-rule="nonzero"></path></g><g><path d=" M 2.600160507901065 1.9599648437500004 L 2.600160507901065 1.6049648437500004 L 2.6351605079010647 1.6049648437500004 L 2.6351605079010647 1.9599648437500004 L 2.600160507901065 1.9599648437500004 M 2.7599034278229397 1.6694648437500004 L 2.7599034278229397 1.9599648437500004 L 2.72490342782294 1.9599648437500004 L 2.72490342782294 1.6049648437500004 L 2.75390342782294 1.6049648437500004 L 2.9869034278229396 1.9009648437500004 L 2.9869034278229396 1.6054648437500003 L 3.0219034278229397 1.6054648437500003 L 3.0219034278229397 1.9599648437500004 L 2.98940342782294 1.9599648437500004 L 2.7599034278229397 1.6694648437500004 M 3.1466397559479398 1.6694648437500004 L 3.1466397559479398 1.9599648437500004 L 3.11163975594794 1.9599648437500004 L 3.11163975594794 1.6049648437500004 L 3.14063975594794 1.6049648437500004 L 3.3736397559479396 1.9009648437500004 L 3.3736397559479396 1.6054648437500003 L 3.4086397559479398 1.6054648437500003 L 3.4086397559479398 1.9599648437500004 L 3.37613975594794 1.9599648437500004 L 3.1466397559479398 1.6694648437500004 M 3.64137608407294 1.9624648437500003 Q 3.60387608407294 1.9624648437500003 3.57337608407294 1.9474648437500004 Q 3.54287608407294 1.9324648437500003 3.52087608407294 1.9067148437500003 Q 3.49887608407294 1.8809648437500004 3.48687608407294 1.8487148437500003 Q 3.47487608407294 1.8164648437500004 3.47487608407294 1.7824648437500004 Q 3.47487608407294 1.7469648437500003 3.48737608407294 1.7147148437500004 Q 3.4998760840729397 1.6824648437500003 3.52262608407294 1.6572148437500003 Q 3.54537608407294 1.6319648437500003 3.5758760840729398 1.6172148437500002 Q 3.6063760840729397 1.6024648437500004 3.64187608407294 1.6024648437500004 Q 3.6793760840729397 1.6024648437500004 3.70987608407294 1.6179648437500003 Q 3.74037608407294 1.6334648437500003 3.76212608407294 1.6594648437500004 Q 3.78387608407294 1.6854648437500004 3.79587608407294 1.7174648437500004 Q 3.80787608407294 1.7494648437500004 3.80787608407294 1.7829648437500003 Q 3.80787608407294 1.8184648437500004 3.79537608407294 1.8507148437500003 Q 3.78287608407294 1.8829648437500004 3.7603760840729397 1.9082148437500004 Q 3.7378760840729397 1.9334648437500004 3.7073760840729397 1.9479648437500003 Q 3.6768760840729398 1.9624648437500003 3.64137608407294 1.9624648437500003 M 3.50987608407294 1.7824648437500004 Q 3.50987608407294 1.8114648437500003 3.51937608407294 1.8382148437500003 Q 3.52887608407294 1.8649648437500004 3.5463760840729397 1.8857148437500004 Q 3.5638760840729398 1.9064648437500002 3.58812608407294 1.9187148437500003 Q 3.61237608407294 1.9309648437500004 3.64137608407294 1.9309648437500004 Q 3.67187608407294 1.9309648437500004 3.6961260840729397 1.9182148437500004 Q 3.72037608407294 1.9054648437500004 3.73762608407294 1.8842148437500004 Q 3.75487608407294 1.8629648437500004 3.76387608407294 1.8364648437500004 Q 3.77287608407294 1.8099648437500004 3.77287608407294 1.7824648437500004 Q 3.77287608407294 1.7534648437500002 3.7633760840729398 1.7269648437500003 Q 3.7538760840729397 1.7004648437500003 3.73612608407294 1.6794648437500004 Q 3.71837608407294 1.6584648437500005 3.69437608407294 1.6464648437500005 Q 3.67037608407294 1.6344648437500005 3.64137608407294 1.6344648437500005 Q 3.61137608407294 1.6344648437500005 3.5871260840729398 1.6469648437500004 Q 3.56287608407294 1.6594648437500004 3.54562608407294 1.6807148437500004 Q 3.52837608407294 1.7019648437500003 3.5191260840729397 1.7284648437500003 Q 3.50987608407294 1.7549648437500003 3.50987608407294 1.7824648437500004 M 3.85962559579169 1.6049648437500004 L 3.98662559579169 1.9164648437500003 L 4.11312559579169 1.6049648437500004 L 4.14962559579169 1.6049648437500004 L 4.00262559579169 1.9599648437500004 L 3.97062559579169 1.9599648437500004 L 3.82312559579169 1.6049648437500004 L 3.85962559579169 1.6049648437500004 M 4.439883652432315 1.9289648437500004 L 4.439883652432315 1.9599648437500004 L 4.201383652432315 1.9599648437500004 L 4.201383652432315 1.6049648437500004 L 4.435383652432315 1.6049648437500004 L 4.435383652432315 1.6359648437500003 L 4.236383652432315 1.6359648437500003 L 4.236383652432315 1.7639648437500004 L 4.409883652432315 1.7639648437500004 L 4.409883652432315 1.7934648437500003 L 4.236383652432315 1.7934648437500003 L 4.236383652432315 1.9289648437500004 L 4.439883652432315 1.9289648437500004 M 4.506638046963565 1.9599648437500004 L 4.506638046963565 1.6049648437500004 L 4.656638046963565 1.6049648437500004 Q 4.679638046963565 1.6049648437500004 4.698638046963565 1.6144648437500004 Q 4.717638046963565 1.6239648437500003 4.731888046963565 1.6402148437500004 Q 4.746138046963565 1.6564648437500002 4.753888046963565 1.6762148437500004 Q 4.761638046963565 1.6959648437500003 4.761638046963565 1.7164648437500003 Q 4.761638046963565 1.7419648437500004 4.751888046963565 1.7644648437500003 Q 4.742138046963565 1.7869648437500003 4.724388046963565 1.8024648437500004 Q 4.706638046963565 1.8179648437500004 4.682638046963565 1.8229648437500003 L 4.769638046963565 1.9599648437500004 L 4.730138046963565 1.9599648437500004 L 4.646638046963565 1.8289648437500003 L 4.541638046963565 1.8289648437500003 L 4.541638046963565 1.9599648437500004 L 4.506638046963565 1.9599648437500004 M 4.541638046963565 1.7979648437500004 L 4.657638046963565 1.7979648437500004 Q 4.678638046963565 1.7979648437500004 4.694138046963565 1.7864648437500004 Q 4.709638046963565 1.7749648437500003 4.718138046963565 1.7562148437500003 Q 4.726638046963565 1.7374648437500004 4.726638046963565 1.7164648437500003 Q 4.726638046963565 1.6949648437500002 4.716888046963565 1.6767148437500003 Q 4.707138046963565 1.6584648437500005 4.690888046963565 1.6472148437500003 Q 4.674638046963565 1.6359648437500003 4.654638046963565 1.6359648437500003 L 4.541638046963565 1.6359648437500003 L 4.541638046963565 1.7979648437500004 M 4.83239561532294 2.0004648437500006 L 4.84089561532294 1.9584648437500003 L 4.82939561532294 1.9584648437500003 L 4.82939561532294 1.9109648437500004 L 4.86239561532294 1.9109648437500004 L 4.86239561532294 1.9584648437500003 L 4.84989561532294 2.0004648437500006 L 4.83239561532294 2.0004648437500006 M 5.05188584969794 1.7799648437500004 Q 5.05188584969794 1.7474648437500004 5.06313584969794 1.7162148437500004 Q 5.07438584969794 1.6849648437500004 5.0958858496979405 1.6592148437500003 Q 5.11738584969794 1.6334648437500003 5.14888584969794 1.6182148437500004 Q 5.18038584969794 1.6029648437500004 5.22038584969794 1.6029648437500004 Q 5.26788584969794 1.6029648437500004 5.30163584969794 1.6247148437500003 Q 5.33538584969794 1.6464648437500005 5.35138584969794 1.6804648437500003 L 5.32388584969794 1.6974648437500004 Q 5.31238584969794 1.6739648437500003 5.29488584969794 1.6602148437500004 Q 5.27738584969794 1.6464648437500005 5.25763584969794 1.6404648437500002 Q 5.23788584969794 1.6344648437500005 5.21838584969794 1.6344648437500005 Q 5.18638584969794 1.6344648437500005 5.16188584969794 1.6472148437500003 Q 5.13738584969794 1.6599648437500003 5.1206358496979405 1.6812148437500003 Q 5.1038858496979405 1.7024648437500003 5.09538584969794 1.7287148437500004 Q 5.08688584969794 1.7549648437500003 5.08688584969794 1.7819648437500004 Q 5.08688584969794 1.8114648437500003 5.09688584969794 1.8384648437500004 Q 5.10688584969794 1.8654648437500003 5.12488584969794 1.8862148437500004 Q 5.14288584969794 1.9069648437500004 5.1671358496979405 1.9192148437500003 Q 5.19138584969794 1.9314648437500004 5.21988584969794 1.9314648437500004 Q 5.23988584969794 1.9314648437500004 5.2608858496979405 1.9244648437500003 Q 5.28188584969794 1.9174648437500004 5.30013584969794 1.9029648437500004 Q 5.31838584969794 1.8884648437500005 5.32938584969794 1.8654648437500003 L 5.35838584969794 1.8804648437500004 Q 5.34738584969794 1.9069648437500004 5.32438584969794 1.9254648437500004 Q 5.30138584969794 1.9439648437500003 5.27313584969794 1.9534648437500004 Q 5.2448858496979405 1.9629648437500002 5.21788584969794 1.9629648437500002 Q 5.18138584969794 1.9629648437500002 5.15088584969794 1.9472148437500003 Q 5.12038584969794 1.9314648437500004 5.09813584969794 1.9052148437500003 Q 5.07588584969794 1.8789648437500004 5.06388584969794 1.8462148437500003 Q 5.05188584969794 1.8134648437500003 5.05188584969794 1.7799648437500004 M 5.419122910244815 1.9599648437500004 L 5.419122910244815 1.6049648437500004 L 5.569122910244815 1.6049648437500004 Q 5.592122910244815 1.6049648437500004 5.6111229102448155 1.6144648437500004 Q 5.630122910244815 1.6239648437500003 5.644372910244815 1.6402148437500004 Q 5.658622910244815 1.6564648437500002 5.6663729102448155 1.6762148437500004 Q 5.674122910244815 1.6959648437500003 5.674122910244815 1.7164648437500003 Q 5.674122910244815 1.7419648437500004 5.664372910244815 1.7644648437500003 Q 5.654622910244815 1.7869648437500003 5.636872910244815 1.8024648437500004 Q 5.6191229102448155 1.8179648437500004 5.5951229102448155 1.8229648437500003 L 5.682122910244815 1.9599648437500004 L 5.642622910244815 1.9599648437500004 L 5.559122910244815 1.8289648437500003 L 5.454122910244815 1.8289648437500003 L 5.454122910244815 1.9599648437500004 L 5.419122910244815 1.9599648437500004 M 5.454122910244815 1.7979648437500004 L 5.570122910244815 1.7979648437500004 Q 5.591122910244815 1.7979648437500004 5.606622910244815 1.7864648437500004 Q 5.622122910244815 1.7749648437500003 5.630622910244815 1.7562148437500003 Q 5.639122910244815 1.7374648437500004 5.639122910244815 1.7164648437500003 Q 5.639122910244815 1.6949648437500002 5.629372910244815 1.6767148437500003 Q 5.619622910244815 1.6584648437500005 5.603372910244815 1.6472148437500003 Q 5.587122910244815 1.6359648437500003 5.567122910244815 1.6359648437500003 L 5.454122910244815 1.6359648437500003 L 5.454122910244815 1.7979648437500004 M 5.9848804786041905 1.9289648437500004 L 5.9848804786041905 1.9599648437500004 L 5.74638047860419 1.9599648437500004 L 5.74638047860419 1.6049648437500004 L 5.98038047860419 1.6049648437500004 L 5.98038047860419 1.6359648437500003 L 5.7813804786041905 1.6359648437500003 L 5.7813804786041905 1.7639648437500004 L 5.95488047860419 1.7639648437500004 L 5.95488047860419 1.7934648437500003 L 5.7813804786041905 1.7934648437500003 L 5.7813804786041905 1.9289648437500004 L 5.9848804786041905 1.9289648437500004 M 5.88188047860419 1.5564648437500004 L 5.85938047860419 1.5479648437500004 L 5.88888047860419 1.5014648437500004 L 5.92488047860419 1.5014648437500004 L 5.88188047860419 1.5564648437500004 M 6.2901348731354405 1.9289648437500004 L 6.2901348731354405 1.9599648437500004 L 6.05163487313544 1.9599648437500004 L 6.05163487313544 1.6049648437500004 L 6.28563487313544 1.6049648437500004 L 6.28563487313544 1.6359648437500003 L 6.0866348731354405 1.6359648437500003 L 6.0866348731354405 1.7639648437500004 L 6.26013487313544 1.7639648437500004 L 6.26013487313544 1.7934648437500003 L 6.0866348731354405 1.7934648437500003 L 6.0866348731354405 1.9289648437500004 L 6.2901348731354405 1.9289648437500004 M 6.35688926766669 1.9599648437500004 L 6.35688926766669 1.6049648437500004 L 6.50688926766669 1.6049648437500004 Q 6.52988926766669 1.6049648437500004 6.5488892676666906 1.6144648437500004 Q 6.56788926766669 1.6239648437500003 6.58213926766669 1.6402148437500004 Q 6.59638926766669 1.6564648437500002 6.604139267666691 1.6762148437500004 Q 6.61188926766669 1.6959648437500003 6.61188926766669 1.7164648437500003 Q 6.61188926766669 1.7419648437500004 6.60213926766669 1.7644648437500003 Q 6.59238926766669 1.7869648437500003 6.57463926766669 1.8024648437500004 Q 6.556889267666691 1.8179648437500004 6.5328892676666905 1.8229648437500003 L 6.61988926766669 1.9599648437500004 L 6.58038926766669 1.9599648437500004 L 6.49688926766669 1.8289648437500003 L 6.3918892676666905 1.8289648437500003 L 6.3918892676666905 1.9599648437500004 L 6.35688926766669 1.9599648437500004 M 6.3918892676666905 1.7979648437500004 L 6.50788926766669 1.7979648437500004 Q 6.52888926766669 1.7979648437500004 6.54438926766669 1.7864648437500004 Q 6.55988926766669 1.7749648437500003 6.56838926766669 1.7562148437500003 Q 6.57688926766669 1.7374648437500004 6.57688926766669 1.7164648437500003 Q 6.57688926766669 1.6949648437500002 6.56713926766669 1.6767148437500003 Q 6.55738926766669 1.6584648437500005 6.54113926766669 1.6472148437500003 Q 6.5248892676666905 1.6359648437500003 6.50488926766669 1.6359648437500003 L 6.3918892676666905 1.6359648437500003 L 6.3918892676666905 1.7979648437500004 M 6.682646836026065 2.0004648437500006 L 6.691146836026065 1.9584648437500003 L 6.679646836026065 1.9584648437500003 L 6.679646836026065 1.9109648437500004 L 6.712646836026066 1.9109648437500004 L 6.712646836026066 1.9584648437500003 L 6.700146836026065 2.0004648437500006 L 6.682646836026065 2.0004648437500006 M 6.902137070401065 1.7799648437500004 Q 6.902137070401065 1.7474648437500004 6.913387070401066 1.7162148437500004 Q 6.924637070401065 1.6849648437500004 6.946137070401066 1.6592148437500003 Q 6.967637070401065 1.6334648437500003 6.999137070401066 1.6182148437500004 Q 7.030637070401065 1.6029648437500004 7.070637070401065 1.6029648437500004 Q 7.118137070401065 1.6029648437500004 7.151887070401065 1.6247148437500003 Q 7.185637070401065 1.6464648437500005 7.201637070401065 1.6804648437500003 L 7.174137070401065 1.6974648437500004 Q 7.162637070401066 1.6739648437500003 7.1451370704010655 1.6602148437500004 Q 7.127637070401065 1.6464648437500005 7.107887070401065 1.6404648437500002 Q 7.088137070401065 1.6344648437500005 7.068637070401065 1.6344648437500005 Q 7.036637070401065 1.6344648437500005 7.0121370704010655 1.6472148437500003 Q 6.987637070401065 1.6599648437500003 6.970887070401066 1.6812148437500003 Q 6.954137070401066 1.7024648437500003 6.945637070401065 1.7287148437500004 Q 6.937137070401065 1.7549648437500003 6.937137070401065 1.7819648437500004 Q 6.937137070401065 1.8114648437500003 6.947137070401065 1.8384648437500004 Q 6.957137070401065 1.8654648437500003 6.975137070401066 1.8862148437500004 Q 6.993137070401065 1.9069648437500004 7.017387070401066 1.9192148437500003 Q 7.041637070401065 1.9314648437500004 7.070137070401065 1.9314648437500004 Q 7.090137070401065 1.9314648437500004 7.111137070401066 1.9244648437500003 Q 7.132137070401066 1.9174648437500004 7.150387070401065 1.9029648437500004 Q 7.168637070401065 1.8884648437500005 7.179637070401065 1.8654648437500003 L 7.208637070401065 1.8804648437500004 Q 7.197637070401065 1.9069648437500004 7.174637070401065 1.9254648437500004 Q 7.151637070401065 1.9439648437500003 7.123387070401066 1.9534648437500004 Q 7.095137070401066 1.9629648437500002 7.0681370704010655 1.9629648437500002 Q 7.031637070401065 1.9629648437500002 7.001137070401065 1.9472148437500003 Q 6.970637070401065 1.9314648437500004 6.948387070401065 1.9052148437500003 Q 6.926137070401065 1.8789648437500004 6.914137070401066 1.8462148437500003 Q 6.902137070401065 1.8134648437500003 6.902137070401065 1.7799648437500004 M 7.408376328213565 1.9624648437500003 Q 7.370876328213566 1.9624648437500003 7.340376328213566 1.9474648437500004 Q 7.309876328213566 1.9324648437500003 7.2878763282135655 1.9067148437500003 Q 7.265876328213565 1.8809648437500004 7.253876328213566 1.8487148437500003 Q 7.241876328213565 1.8164648437500004 7.241876328213565 1.7824648437500004 Q 7.241876328213565 1.7469648437500003 7.254376328213565 1.7147148437500004 Q 7.2668763282135656 1.6824648437500003 7.289626328213565 1.6572148437500003 Q 7.312376328213565 1.6319648437500003 7.342876328213565 1.6172148437500002 Q 7.373376328213565 1.6024648437500004 7.408876328213565 1.6024648437500004 Q 7.4463763282135655 1.6024648437500004 7.4768763282135655 1.6179648437500003 Q 7.5073763282135655 1.6334648437500003 7.529126328213565 1.6594648437500004 Q 7.550876328213565 1.6854648437500004 7.562876328213565 1.7174648437500004 Q 7.574876328213565 1.7494648437500004 7.574876328213565 1.7829648437500003 Q 7.574876328213565 1.8184648437500004 7.562376328213565 1.8507148437500003 Q 7.549876328213565 1.8829648437500004 7.527376328213565 1.9082148437500004 Q 7.504876328213565 1.9334648437500004 7.474376328213565 1.9479648437500003 Q 7.443876328213565 1.9624648437500003 7.408376328213565 1.9624648437500003 M 7.276876328213565 1.7824648437500004 Q 7.276876328213565 1.8114648437500003 7.286376328213565 1.8382148437500003 Q 7.2958763282135655 1.8649648437500004 7.3133763282135655 1.8857148437500004 Q 7.330876328213566 1.9064648437500002 7.355126328213565 1.9187148437500003 Q 7.379376328213565 1.9309648437500004 7.408376328213565 1.9309648437500004 Q 7.438876328213565 1.9309648437500004 7.463126328213566 1.9182148437500004 Q 7.487376328213565 1.9054648437500004 7.504626328213566 1.8842148437500004 Q 7.521876328213565 1.8629648437500004 7.530876328213565 1.8364648437500004 Q 7.539876328213565 1.8099648437500004 7.539876328213565 1.7824648437500004 Q 7.539876328213565 1.7534648437500002 7.530376328213565 1.7269648437500003 Q 7.520876328213565 1.7004648437500003 7.503126328213566 1.6794648437500004 Q 7.485376328213565 1.6584648437500005 7.461376328213565 1.6464648437500005 Q 7.437376328213565 1.6344648437500005 7.408376328213565 1.6344648437500005 Q 7.378376328213565 1.6344648437500005 7.354126328213566 1.6469648437500004 Q 7.329876328213565 1.6594648437500004 7.3126263282135655 1.6807148437500004 Q 7.295376328213565 1.7019648437500003 7.286126328213565 1.7284648437500003 Q 7.276876328213565 1.7549648437500003 7.276876328213565 1.7824648437500004 M 7.676614609463566 1.6694648437500004 L 7.676614609463566 1.9599648437500004 L 7.6416146094635655 1.9599648437500004 L 7.6416146094635655 1.6049648437500004 L 7.670614609463565 1.6049648437500004 L 7.903614609463565 1.9009648437500004 L 7.903614609463565 1.6054648437500003 L 7.938614609463565 1.6054648437500003 L 7.938614609463565 1.9599648437500004 L 7.9061146094635655 1.9599648437500004 L 7.676614609463566 1.6694648437500004 M 8.063350937588565 1.6694648437500004 L 8.063350937588565 1.9599648437500004 L 8.028350937588565 1.9599648437500004 L 8.028350937588565 1.6049648437500004 L 8.057350937588565 1.6049648437500004 L 8.290350937588565 1.9009648437500004 L 8.290350937588565 1.6054648437500003 L 8.325350937588565 1.6054648437500003 L 8.325350937588565 1.9599648437500004 L 8.292850937588565 1.9599648437500004 L 8.063350937588565 1.6694648437500004 M 8.653587265713565 1.9289648437500004 L 8.653587265713565 1.9599648437500004 L 8.415087265713565 1.9599648437500004 L 8.415087265713565 1.6049648437500004 L 8.649087265713565 1.6049648437500004 L 8.649087265713565 1.6359648437500003 L 8.450087265713565 1.6359648437500003 L 8.450087265713565 1.7639648437500004 L 8.623587265713565 1.7639648437500004 L 8.623587265713565 1.7934648437500003 L 8.450087265713565 1.7934648437500003 L 8.450087265713565 1.9289648437500004 L 8.653587265713565 1.9289648437500004 M 8.689853134854191 1.7799648437500004 Q 8.689853134854191 1.7474648437500004 8.70110313485419 1.7162148437500004 Q 8.71235313485419 1.6849648437500004 8.73385313485419 1.6592148437500003 Q 8.75535313485419 1.6334648437500003 8.78685313485419 1.6182148437500004 Q 8.81835313485419 1.6029648437500004 8.858353134854191 1.6029648437500004 Q 8.90585313485419 1.6029648437500004 8.93960313485419 1.6247148437500003 Q 8.97335313485419 1.6464648437500005 8.989353134854191 1.6804648437500003 L 8.96185313485419 1.6974648437500004 Q 8.95035313485419 1.6739648437500003 8.93285313485419 1.6602148437500004 Q 8.91535313485419 1.6464648437500005 8.895603134854191 1.6404648437500002 Q 8.875853134854191 1.6344648437500005 8.85635313485419 1.6344648437500005 Q 8.82435313485419 1.6344648437500005 8.79985313485419 1.6472148437500003 Q 8.77535313485419 1.6599648437500003 8.75860313485419 1.6812148437500003 Q 8.74185313485419 1.7024648437500003 8.733353134854191 1.7287148437500004 Q 8.72485313485419 1.7549648437500003 8.72485313485419 1.7819648437500004 Q 8.72485313485419 1.8114648437500003 8.734853134854191 1.8384648437500004 Q 8.744853134854191 1.8654648437500003 8.76285313485419 1.8862148437500004 Q 8.78085313485419 1.9069648437500004 8.80510313485419 1.9192148437500003 Q 8.829353134854191 1.9314648437500004 8.85785313485419 1.9314648437500004 Q 8.87785313485419 1.9314648437500004 8.89885313485419 1.9244648437500003 Q 8.91985313485419 1.9174648437500004 8.93810313485419 1.9029648437500004 Q 8.95635313485419 1.8884648437500005 8.967353134854191 1.8654648437500003 L 8.996353134854191 1.8804648437500004 Q 8.98535313485419 1.9069648437500004 8.96235313485419 1.9254648437500004 Q 8.93935313485419 1.9439648437500003 8.91110313485419 1.9534648437500004 Q 8.88285313485419 1.9629648437500002 8.85585313485419 1.9629648437500002 Q 8.81935313485419 1.9629648437500002 8.78885313485419 1.9472148437500003 Q 8.75835313485419 1.9314648437500004 8.73610313485419 1.9052148437500003 Q 8.71385313485419 1.8789648437500004 8.70185313485419 1.8462148437500003 Q 8.689853134854191 1.8134648437500003 8.689853134854191 1.7799648437500004 M 9.30808311532294 1.6359648437500003 L 9.18158311532294 1.6359648437500003 L 9.18158311532294 1.9599648437500004 L 9.14658311532294 1.9599648437500004 L 9.14658311532294 1.6359648437500003 L 9.02008311532294 1.6359648437500003 L 9.02008311532294 1.6049648437500004 L 9.30808311532294 1.6049648437500004 L 9.30808311532294 1.6359648437500003 M 9.60032579110419 1.9289648437500004 L 9.60032579110419 1.9599648437500004 L 9.36182579110419 1.9599648437500004 L 9.36182579110419 1.6049648437500004 L 9.59582579110419 1.6049648437500004 L 9.59582579110419 1.6359648437500003 L 9.39682579110419 1.6359648437500003 L 9.39682579110419 1.7639648437500004 L 9.57032579110419 1.7639648437500004 L 9.57032579110419 1.7934648437500003 L 9.39682579110419 1.7934648437500003 L 9.39682579110419 1.9289648437500004 L 9.60032579110419 1.9289648437500004 M 9.66708018563544 1.9599648437500004 L 9.66708018563544 1.6049648437500004 L 9.81708018563544 1.6049648437500004 Q 9.84008018563544 1.6049648437500004 9.85908018563544 1.6144648437500004 Q 9.87808018563544 1.6239648437500003 9.89233018563544 1.6402148437500004 Q 9.906580185635441 1.6564648437500002 9.91433018563544 1.6762148437500004 Q 9.92208018563544 1.6959648437500003 9.92208018563544 1.7164648437500003 Q 9.92208018563544 1.7419648437500004 9.91233018563544 1.7644648437500003 Q 9.90258018563544 1.7869648437500003 9.88483018563544 1.8024648437500004 Q 9.86708018563544 1.8179648437500004 9.84308018563544 1.8229648437500003 L 9.93008018563544 1.9599648437500004 L 9.890580185635441 1.9599648437500004 L 9.80708018563544 1.8289648437500003 L 9.70208018563544 1.8289648437500003 L 9.70208018563544 1.9599648437500004 L 9.66708018563544 1.9599648437500004 M 9.70208018563544 1.7979648437500004 L 9.818080185635441 1.7979648437500004 Q 9.83908018563544 1.7979648437500004 9.85458018563544 1.7864648437500004 Q 9.870080185635441 1.7749648437500003 9.87858018563544 1.7562148437500003 Q 9.88708018563544 1.7374648437500004 9.88708018563544 1.7164648437500003 Q 9.88708018563544 1.6949648437500002 9.87733018563544 1.6767148437500003 Q 9.86758018563544 1.6584648437500005 9.85133018563544 1.6472148437500003 Q 9.83508018563544 1.6359648437500003 9.815080185635441 1.6359648437500003 L 9.70208018563544 1.6359648437500003 L 9.70208018563544 1.7979648437500004" fill="#bf0000" fill-rule="nonzero"></path></g></g><defs><clipPath id="SvgjsClipPath1002"><path d=" M 5.04970703125 -0.25195312500000006 h 1.404357636895879 v 1.2534179687500002 h -1.404357636895879 Z"></path></clipPath><clipPath id="SvgjsClipPath1000b73275ef-b7a6-405e-b8d1-3f6fdd383588"><path d=" M 5.04970703125 -0.25195312500000006 L 6.454064668145879 -0.25195312500000006 L 6.454064668145879 1.0014648437500002 L 5.04970703125 1.0014648437500002 Z"></path></clipPath></defs></svg>